<svg xmlns="http://www.w3.org/2000/svg" width="720" height="230" viewBox="0 0 720 230" role="img" aria-label="Volet roulant"><title>Volet roulant</title><rect width="720" height="230" fill="white"/><g stroke="#263d38" stroke-width="3" stroke-linecap="round" stroke-linejoin="round" font-family="Arial,sans-serif"><rect x="83" y="30" width="206" height="147" rx="1" fill="white"/><rect x="75" y="15" width="223" height="30" rx="5" fill="#c6d8d1"/><path d="M85 58h201" fill="none"/><path d="M85 74h201" fill="none"/><path d="M85 90h201" fill="none"/><path d="M85 106h201" fill="none"/><path d="M85 122h201" fill="none"/><path d="M186 122v55" fill="none"/><rect x="314" y="81" width="22" height="42" rx="5" fill="white"/><text x="180" y="218" font-size="21" fill="#243c38" stroke="none" text-anchor="middle">Volet roulant</text><rect x="457" y="30" width="190" height="118" rx="5" fill="#eef2ee"/><rect x="469" y="42" width="166" height="88" rx="2" fill="white"/><path d="M557 148v20m-45 0h90" fill="none"/><path d="M483 67h132m-132 21h101" fill="none"/><text x="555" y="204" font-size="20" fill="#243c38" stroke="none" text-anchor="middle">Ordinateur</text></g></svg>